<svg width="1089" height="1089" viewBox="0 0 1089 1089" fill="none" xmlns="http://www.w3.org/2000/svg">
<path id="SISES" d="M273.93 490.364C272.652 479.568 267.467 471.188 258.376 465.222C249.285 459.256 238.135 456.273 224.924 456.273C215.265 456.273 206.814 457.835 199.569 460.96C192.396 464.085 186.785 468.382 182.737 473.851C178.76 479.32 176.771 485.534 176.771 492.494C176.771 498.318 178.156 503.325 180.926 507.516C183.767 511.635 187.389 515.08 191.792 517.849C196.196 520.548 200.812 522.786 205.642 524.561C210.471 526.266 214.91 527.651 218.958 528.716L241.118 534.682C246.799 536.173 253.12 538.233 260.081 540.861C267.112 543.489 273.824 547.075 280.216 551.621C286.679 556.095 292.005 561.848 296.196 568.879C300.386 575.911 302.481 584.54 302.481 594.767C302.481 606.557 299.392 617.21 293.213 626.727C287.105 636.244 278.156 643.808 266.366 649.419C254.647 655.03 240.407 657.835 223.646 657.835C208.021 657.835 194.491 655.314 183.056 650.271C171.693 645.229 162.744 638.197 156.21 629.178C149.747 620.158 146.089 609.682 145.237 597.75H172.51C173.22 605.989 175.99 612.807 180.819 618.205C185.72 623.531 191.899 627.509 199.356 630.136C206.885 632.693 214.981 633.972 223.646 633.972C233.731 633.972 242.787 632.338 250.812 629.071C258.838 625.733 265.194 621.116 269.882 615.222C274.569 609.256 276.913 602.295 276.913 594.341C276.913 587.097 274.889 581.202 270.841 576.656C266.792 572.111 261.466 568.418 254.86 565.577C248.255 562.736 241.118 560.25 233.447 558.119L206.601 550.449C189.555 545.548 176.061 538.553 166.118 529.462C156.174 520.371 151.203 508.474 151.203 493.773C151.203 481.557 154.505 470.903 161.11 461.812C167.787 452.651 176.735 445.548 187.957 440.506C199.25 435.392 211.856 432.835 225.777 432.835C239.839 432.835 252.339 435.357 263.277 440.399C274.214 445.371 282.879 452.189 289.271 460.854C295.734 469.518 299.143 479.355 299.498 490.364H273.93ZM372.341 435.818V654H345.92V435.818H372.341ZM544.633 490.364C543.355 479.568 538.17 471.188 529.079 465.222C519.988 459.256 508.838 456.273 495.627 456.273C485.968 456.273 477.517 457.835 470.272 460.96C463.099 464.085 457.488 468.382 453.44 473.851C449.463 479.32 447.474 485.534 447.474 492.494C447.474 498.318 448.859 503.325 451.629 507.516C454.47 511.635 458.092 515.08 462.495 517.849C466.899 520.548 471.515 522.786 476.345 524.561C481.174 526.266 485.613 527.651 489.662 528.716L511.821 534.682C517.502 536.173 523.824 538.233 530.784 540.861C537.815 543.489 544.527 547.075 550.919 551.621C557.382 556.095 562.708 561.848 566.899 568.879C571.089 575.911 573.184 584.54 573.184 594.767C573.184 606.557 570.095 617.21 563.916 626.727C557.808 636.244 548.859 643.808 537.069 649.419C525.351 655.03 511.11 657.835 494.349 657.835C478.724 657.835 465.194 655.314 453.76 650.271C442.396 645.229 433.447 638.197 426.913 629.178C420.45 620.158 416.792 609.682 415.94 597.75H443.213C443.923 605.989 446.693 612.807 451.522 618.205C456.423 623.531 462.602 627.509 470.059 630.136C477.588 632.693 485.684 633.972 494.349 633.972C504.434 633.972 513.49 632.338 521.515 629.071C529.541 625.733 535.897 621.116 540.585 615.222C545.272 609.256 547.616 602.295 547.616 594.341C547.616 587.097 545.592 581.202 541.544 576.656C537.495 572.111 532.169 568.418 525.564 565.577C518.958 562.736 511.821 560.25 504.15 558.119L477.304 550.449C460.258 545.548 446.764 538.553 436.821 529.462C426.877 520.371 421.906 508.474 421.906 493.773C421.906 481.557 425.208 470.903 431.814 461.812C438.49 452.651 447.439 445.548 458.66 440.506C469.953 435.392 482.559 432.835 496.48 432.835C510.542 432.835 523.042 435.357 533.98 440.399C544.917 445.371 553.582 452.189 559.974 460.854C566.437 469.518 569.846 479.355 570.201 490.364H544.633ZM616.624 654V435.818H748.3V459.256H643.044V532.977H741.482V556.415H643.044V630.562H750.004V654H616.624ZM915.239 490.364C913.96 479.568 908.776 471.188 899.685 465.222C890.594 459.256 879.443 456.273 866.233 456.273C856.574 456.273 848.122 457.835 840.878 460.96C833.705 464.085 828.094 468.382 824.045 473.851C820.068 479.32 818.08 485.534 818.08 492.494C818.08 498.318 819.464 503.325 822.234 507.516C825.075 511.635 828.697 515.08 833.101 517.849C837.504 520.548 842.121 522.786 846.95 524.561C851.78 526.266 856.219 527.651 860.267 528.716L882.426 534.682C888.108 536.173 894.429 538.233 901.389 540.861C908.42 543.489 915.132 547.075 921.524 551.621C927.987 556.095 933.314 561.848 937.504 568.879C941.695 575.911 943.79 584.54 943.79 594.767C943.79 606.557 940.7 617.21 934.521 626.727C928.413 636.244 919.464 643.808 907.675 649.419C895.956 655.03 881.716 657.835 864.955 657.835C849.33 657.835 835.8 655.314 824.365 650.271C813.001 645.229 804.053 638.197 797.518 629.178C791.055 620.158 787.398 609.682 786.545 597.75H813.818C814.528 605.989 817.298 612.807 822.128 618.205C827.028 623.531 833.207 627.509 840.665 630.136C848.193 632.693 856.29 633.972 864.955 633.972C875.04 633.972 884.095 632.338 892.121 629.071C900.146 625.733 906.503 621.116 911.19 615.222C915.878 609.256 918.222 602.295 918.222 594.341C918.222 587.097 916.197 581.202 912.149 576.656C908.101 572.111 902.774 568.418 896.169 565.577C889.564 562.736 882.426 560.25 874.756 558.119L847.909 550.449C830.864 545.548 817.369 538.553 807.426 529.462C797.483 520.371 792.511 508.474 792.511 493.773C792.511 481.557 795.814 470.903 802.419 461.812C809.095 452.651 818.044 445.548 829.266 440.506C840.558 435.392 853.165 432.835 867.085 432.835C881.148 432.835 893.648 435.357 904.585 440.399C915.523 445.371 924.188 452.189 930.58 460.854C937.043 469.518 940.452 479.355 940.807 490.364H915.239Z" fill="#7C7C7C"/>
</svg>
