<svg width="1089" height="476" viewBox="0 0 1089 476" fill="none" xmlns="http://www.w3.org/2000/svg">
<path id="SISES" d="M273.93 183.364C272.652 172.568 267.467 164.188 258.376 158.222C249.285 152.256 238.135 149.273 224.924 149.273C215.265 149.273 206.814 150.835 199.569 153.96C192.396 157.085 186.785 161.382 182.737 166.851C178.76 172.32 176.771 178.534 176.771 185.494C176.771 191.318 178.156 196.325 180.926 200.516C183.767 204.635 187.389 208.08 191.792 210.849C196.196 213.548 200.812 215.786 205.642 217.561C210.471 219.266 214.91 220.651 218.958 221.716L241.118 227.682C246.799 229.173 253.12 231.233 260.081 233.861C267.112 236.489 273.824 240.075 280.216 244.621C286.679 249.095 292.005 254.848 296.196 261.879C300.386 268.911 302.481 277.54 302.481 287.767C302.481 299.557 299.392 310.21 293.213 319.727C287.105 329.244 278.156 336.808 266.366 342.419C254.647 348.03 240.407 350.835 223.646 350.835C208.021 350.835 194.491 348.314 183.056 343.271C171.693 338.229 162.744 331.197 156.21 322.178C149.747 313.158 146.089 302.682 145.237 290.75H172.51C173.22 298.989 175.99 305.807 180.819 311.205C185.72 316.531 191.899 320.509 199.356 323.136C206.885 325.693 214.981 326.972 223.646 326.972C233.731 326.972 242.787 325.338 250.812 322.071C258.838 318.733 265.194 314.116 269.882 308.222C274.569 302.256 276.913 295.295 276.913 287.341C276.913 280.097 274.889 274.202 270.841 269.656C266.792 265.111 261.466 261.418 254.86 258.577C248.255 255.736 241.118 253.25 233.447 251.119L206.601 243.449C189.555 238.548 176.061 231.553 166.118 222.462C156.174 213.371 151.203 201.474 151.203 186.773C151.203 174.557 154.505 163.903 161.11 154.812C167.787 145.651 176.735 138.548 187.957 133.506C199.25 128.392 211.856 125.835 225.777 125.835C239.839 125.835 252.339 128.357 263.277 133.399C274.214 138.371 282.879 145.189 289.271 153.854C295.734 162.518 299.143 172.355 299.498 183.364H273.93ZM372.341 128.818V347H345.92V128.818H372.341ZM544.633 183.364C543.355 172.568 538.17 164.188 529.079 158.222C519.988 152.256 508.838 149.273 495.627 149.273C485.968 149.273 477.517 150.835 470.272 153.96C463.099 157.085 457.488 161.382 453.44 166.851C449.463 172.32 447.474 178.534 447.474 185.494C447.474 191.318 448.859 196.325 451.629 200.516C454.47 204.635 458.092 208.08 462.495 210.849C466.899 213.548 471.515 215.786 476.345 217.561C481.174 219.266 485.613 220.651 489.662 221.716L511.821 227.682C517.502 229.173 523.824 231.233 530.784 233.861C537.815 236.489 544.527 240.075 550.919 244.621C557.382 249.095 562.708 254.848 566.899 261.879C571.089 268.911 573.184 277.54 573.184 287.767C573.184 299.557 570.095 310.21 563.916 319.727C557.808 329.244 548.859 336.808 537.069 342.419C525.351 348.03 511.11 350.835 494.349 350.835C478.724 350.835 465.194 348.314 453.76 343.271C442.396 338.229 433.447 331.197 426.913 322.178C420.45 313.158 416.792 302.682 415.94 290.75H443.213C443.923 298.989 446.693 305.807 451.522 311.205C456.423 316.531 462.602 320.509 470.059 323.136C477.588 325.693 485.684 326.972 494.349 326.972C504.434 326.972 513.49 325.338 521.515 322.071C529.541 318.733 535.897 314.116 540.585 308.222C545.272 302.256 547.616 295.295 547.616 287.341C547.616 280.097 545.592 274.202 541.544 269.656C537.495 265.111 532.169 261.418 525.564 258.577C518.958 255.736 511.821 253.25 504.15 251.119L477.304 243.449C460.258 238.548 446.764 231.553 436.821 222.462C426.877 213.371 421.906 201.474 421.906 186.773C421.906 174.557 425.208 163.903 431.814 154.812C438.49 145.651 447.439 138.548 458.66 133.506C469.953 128.392 482.559 125.835 496.48 125.835C510.542 125.835 523.042 128.357 533.98 133.399C544.917 138.371 553.582 145.189 559.974 153.854C566.437 162.518 569.846 172.355 570.201 183.364H544.633ZM616.624 347V128.818H748.3V152.256H643.044V225.977H741.482V249.415H643.044V323.562H750.004V347H616.624ZM915.239 183.364C913.96 172.568 908.776 164.188 899.685 158.222C890.594 152.256 879.443 149.273 866.233 149.273C856.574 149.273 848.122 150.835 840.878 153.96C833.705 157.085 828.094 161.382 824.045 166.851C820.068 172.32 818.08 178.534 818.08 185.494C818.08 191.318 819.464 196.325 822.234 200.516C825.075 204.635 828.697 208.08 833.101 210.849C837.504 213.548 842.121 215.786 846.95 217.561C851.78 219.266 856.219 220.651 860.267 221.716L882.426 227.682C888.108 229.173 894.429 231.233 901.389 233.861C908.42 236.489 915.132 240.075 921.524 244.621C927.987 249.095 933.314 254.848 937.504 261.879C941.695 268.911 943.79 277.54 943.79 287.767C943.79 299.557 940.7 310.21 934.521 319.727C928.413 329.244 919.464 336.808 907.675 342.419C895.956 348.03 881.716 350.835 864.955 350.835C849.33 350.835 835.8 348.314 824.365 343.271C813.001 338.229 804.053 331.197 797.518 322.178C791.055 313.158 787.398 302.682 786.545 290.75H813.818C814.528 298.989 817.298 305.807 822.128 311.205C827.028 316.531 833.207 320.509 840.665 323.136C848.193 325.693 856.29 326.972 864.955 326.972C875.04 326.972 884.095 325.338 892.121 322.071C900.146 318.733 906.503 314.116 911.19 308.222C915.878 302.256 918.222 295.295 918.222 287.341C918.222 280.097 916.197 274.202 912.149 269.656C908.101 265.111 902.774 261.418 896.169 258.577C889.564 255.736 882.426 253.25 874.756 251.119L847.909 243.449C830.864 238.548 817.369 231.553 807.426 222.462C797.483 213.371 792.511 201.474 792.511 186.773C792.511 174.557 795.814 163.903 802.419 154.812C809.095 145.651 818.044 138.548 829.266 133.506C840.558 128.392 853.165 125.835 867.085 125.835C881.148 125.835 893.648 128.357 904.585 133.399C915.523 138.371 924.188 145.189 930.58 153.854C937.043 162.518 940.452 172.355 940.807 183.364H915.239Z" fill="#7C7C7C"/>
</svg>
